<svg width="57" height="24" viewBox="0 0 57 24" fill="none" xmlns="http://www.w3.org/2000/svg">
<path d="M7.488 20.192C6.288 20.192 5.136 20.016 4.032 19.664C2.944 19.296 2.072 18.808 1.416 18.2C1.176 17.976 1.056 17.696 1.056 17.36C1.056 17.136 1.12 16.944 1.248 16.784C1.376 16.608 1.528 16.52 1.704 16.52C1.912 16.52 2.136 16.608 2.376 16.784C3.864 17.936 5.56 18.512 7.464 18.512C8.84 18.512 9.896 18.248 10.632 17.72C11.368 17.192 11.736 16.44 11.736 15.464C11.736 14.904 11.56 14.456 11.208 14.12C10.856 13.768 10.392 13.488 9.816 13.28C9.24 13.072 8.464 12.856 7.488 12.632C6.176 12.328 5.096 12.008 4.248 11.672C3.416 11.336 2.736 10.856 2.208 10.232C1.696 9.608 1.44 8.792 1.44 7.784C1.44 6.824 1.696 5.976 2.208 5.24C2.736 4.488 3.464 3.912 4.392 3.512C5.336 3.096 6.408 2.888 7.608 2.888C8.728 2.888 9.768 3.064 10.728 3.416C11.704 3.752 12.52 4.24 13.176 4.88C13.432 5.136 13.56 5.416 13.56 5.72C13.56 5.944 13.496 6.144 13.368 6.32C13.24 6.48 13.088 6.56 12.912 6.56C12.736 6.56 12.504 6.472 12.216 6.296C11.432 5.656 10.704 5.208 10.032 4.952C9.36 4.696 8.552 4.568 7.608 4.568C6.28 4.568 5.248 4.848 4.512 5.408C3.776 5.952 3.408 6.72 3.408 7.712C3.408 8.56 3.728 9.2 4.368 9.632C5.024 10.048 6.024 10.416 7.368 10.736C8.824 11.088 9.968 11.416 10.8 11.72C11.632 12.008 12.32 12.448 12.864 13.04C13.424 13.632 13.704 14.424 13.704 15.416C13.704 16.36 13.44 17.192 12.912 17.912C12.4 18.632 11.672 19.192 10.728 19.592C9.784 19.992 8.704 20.192 7.488 20.192ZM30.9182 18.872C30.9822 19 31.0142 19.136 31.0142 19.28C31.0142 19.52 30.9182 19.72 30.7262 19.88C30.5502 20.04 30.3342 20.12 30.0782 20.12C29.6782 20.12 29.3982 19.928 29.2382 19.544L27.5342 15.656H18.4862L16.7582 19.544C16.5982 19.928 16.3182 20.12 15.9182 20.12C15.6622 20.12 15.4382 20.04 15.2462 19.88C15.0542 19.704 14.9582 19.496 14.9582 19.256C14.9582 19.128 14.9902 19 15.0542 18.872L21.9182 3.608C22.0142 3.384 22.1582 3.216 22.3502 3.104C22.5422 2.992 22.7502 2.936 22.9742 2.936C23.2142 2.936 23.4302 3 23.6222 3.128C23.8142 3.24 23.9582 3.4 24.0542 3.608L30.9182 18.872ZM19.2062 14.024H26.8142L22.9982 5.408L19.2062 14.024Z" fill="#1D3557"/>
<path d="M56 11C56 12.1819 55.6896 13.3522 55.0866 14.4442C54.4835 15.5361 53.5996 16.5282 52.4853 17.364C51.371 18.1997 50.0481 18.8626 48.5922 19.3149C47.1363 19.7672 45.5759 20 44 20C42.4241 20 40.9559 19.9523 39.5 19.5C38.0441 19.0477 36.1143 18.3357 35 17.5C33.8857 16.6643 33.5165 15.5361 32.9134 14.4442C32.3104 13.3522 32 12.1819 32 11L44 11H56Z" fill="#E45301"/>
<path d="M32.1054 10.1429C30.0582 24.9224 58.5449 22.7489 55.8155 10.1429" stroke="#1D3557" stroke-linecap="round"/>
<path d="M38.9243 1C38.9243 1 37.6666 2.19976 37.7157 3.11111C37.7606 3.94494 38.9243 5 38.9243 5C38.9243 5 40.0434 6.21733 39.9987 7.11111C39.958 7.92567 38.9243 9 38.9243 9" stroke="#A9A9A9" stroke-linecap="round"/>
<path d="M48.0672 1C48.0672 1 46.8095 2.19976 46.8585 3.11111C46.9034 3.94494 48.0672 5 48.0672 5C48.0672 5 49.1862 6.21733 49.1416 7.11111C49.1008 7.92567 48.0672 9 48.0672 9" stroke="#A9A9A9" stroke-linecap="round"/>
<path d="M43.4958 1C43.4958 1 42.238 2.19976 42.2871 3.11111C42.332 3.94494 43.4958 5 43.4958 5C43.4958 5 44.6148 6.21733 44.5701 7.11111C44.5294 7.92567 43.4958 9 43.4958 9" stroke="#A9A9A9" stroke-linecap="round"/>
</svg>
