<svg width="211" height="322" viewBox="0 0 211 322" fill="none" xmlns="http://www.w3.org/2000/svg">
<path d="M119.942 154.058C112.235 176.386 87.0606 190.461 52.3134 195.017C17.5997 199.568 -26.5039 194.587 -71.7562 178.967C-117.008 163.347 -154.795 140.063 -179.31 115.068C-203.848 90.0481 -214.981 63.4407 -207.274 41.1135C-199.567 18.7863 -174.393 4.71098 -139.645 0.155083C-104.932 -4.39642 -60.8281 0.585313 -15.5758 16.205C29.6765 31.8247 67.4627 55.1088 91.9777 80.1042C116.516 105.124 127.649 131.731 119.942 154.058Z" stroke="#1D3557" stroke-opacity="0.45"/>
<path d="M154.414 158.972C123.614 248.203 25.3985 295.267 -64.9652 264.077C-155.329 232.886 -203.602 135.258 -172.802 46.0275C-142.002 -43.2032 -43.7865 -90.2674 46.5772 -59.0766C136.941 -27.8858 185.214 69.7417 154.414 158.972Z" stroke="#1D3557" stroke-opacity="0.45"/>
</svg>
