<svg width="337" height="364" viewBox="0 0 337 364" fill="none" xmlns="http://www.w3.org/2000/svg">
<path d="M160.745 219.175C160.045 219.175 159.485 218.977 159.065 218.58C158.668 218.16 158.47 217.612 158.47 216.935V198.035H152.1C150.7 198.035 150 197.417 150 196.18C150 194.943 150.7 194.325 152.1 194.325H169.355C170.755 194.325 171.455 194.943 171.455 196.18C171.455 197.417 170.755 198.035 169.355 198.035H162.985V216.935C162.985 217.612 162.775 218.16 162.355 218.58C161.958 218.977 161.422 219.175 160.745 219.175ZM177.725 201.465C180.105 201.465 181.867 202.06 183.01 203.25C184.177 204.417 184.76 206.202 184.76 208.605V217.145C184.76 217.775 184.574 218.277 184.2 218.65C183.827 219 183.314 219.175 182.66 219.175C182.054 219.175 181.552 218.988 181.155 218.615C180.782 218.242 180.595 217.752 180.595 217.145V216.375C180.199 217.285 179.569 217.997 178.705 218.51C177.865 219.023 176.885 219.28 175.765 219.28C174.622 219.28 173.584 219.047 172.65 218.58C171.717 218.113 170.982 217.472 170.445 216.655C169.909 215.838 169.64 214.928 169.64 213.925C169.64 212.665 169.955 211.673 170.585 210.95C171.239 210.227 172.289 209.702 173.735 209.375C175.182 209.048 177.177 208.885 179.72 208.885H180.595V208.08C180.595 206.937 180.35 206.108 179.86 205.595C179.37 205.058 178.577 204.79 177.48 204.79C176.804 204.79 176.115 204.895 175.415 205.105C174.715 205.292 173.887 205.572 172.93 205.945C172.324 206.248 171.88 206.4 171.6 206.4C171.18 206.4 170.83 206.248 170.55 205.945C170.294 205.642 170.165 205.245 170.165 204.755C170.165 204.358 170.259 204.02 170.445 203.74C170.655 203.437 170.994 203.157 171.46 202.9C172.277 202.457 173.245 202.107 174.365 201.85C175.509 201.593 176.629 201.465 177.725 201.465ZM176.64 216.13C177.807 216.13 178.752 215.745 179.475 214.975C180.222 214.182 180.595 213.167 180.595 211.93V211.195H179.965C178.402 211.195 177.189 211.265 176.325 211.405C175.462 211.545 174.844 211.79 174.47 212.14C174.097 212.49 173.91 212.968 173.91 213.575C173.91 214.322 174.167 214.94 174.68 215.43C175.217 215.897 175.87 216.13 176.64 216.13ZM208.842 201.465C210.709 201.465 212.132 202.025 213.112 203.145C214.115 204.242 214.617 206.027 214.617 208.5V217.11C214.617 217.787 214.407 218.312 213.987 218.685C213.59 219.035 213.065 219.21 212.412 219.21C211.782 219.21 211.257 219.035 210.837 218.685C210.44 218.312 210.242 217.787 210.242 217.11V208.5C210.242 207.217 210.009 206.307 209.542 205.77C209.099 205.21 208.41 204.93 207.477 204.93C206.334 204.93 205.424 205.327 204.747 206.12C204.07 206.89 203.732 207.952 203.732 209.305V217.11C203.732 217.787 203.522 218.312 203.102 218.685C202.705 219.035 202.192 219.21 201.562 219.21C200.932 219.21 200.407 219.035 199.987 218.685C199.567 218.312 199.357 217.787 199.357 217.11V208.5C199.357 207.217 199.124 206.307 198.657 205.77C198.214 205.21 197.525 204.93 196.592 204.93C195.449 204.93 194.539 205.327 193.862 206.12C193.209 206.89 192.882 207.952 192.882 209.305V217.11C192.882 217.787 192.672 218.312 192.252 218.685C191.832 219.035 191.307 219.21 190.677 219.21C190.047 219.21 189.522 219.035 189.102 218.685C188.705 218.312 188.507 217.787 188.507 217.11V203.565C188.507 202.912 188.717 202.41 189.137 202.06C189.557 201.71 190.082 201.535 190.712 201.535C191.319 201.535 191.809 201.71 192.182 202.06C192.579 202.387 192.777 202.865 192.777 203.495V204.335C193.314 203.402 194.025 202.69 194.912 202.2C195.822 201.71 196.86 201.465 198.027 201.465C200.594 201.465 202.309 202.538 203.172 204.685C203.685 203.705 204.444 202.923 205.447 202.34C206.45 201.757 207.582 201.465 208.842 201.465ZM225.783 201.465C228.163 201.465 229.925 202.06 231.068 203.25C232.235 204.417 232.818 206.202 232.818 208.605V217.145C232.818 217.775 232.632 218.277 232.258 218.65C231.885 219 231.372 219.175 230.718 219.175C230.112 219.175 229.61 218.988 229.213 218.615C228.84 218.242 228.653 217.752 228.653 217.145V216.375C228.257 217.285 227.627 217.997 226.763 218.51C225.923 219.023 224.943 219.28 223.823 219.28C222.68 219.28 221.642 219.047 220.708 218.58C219.775 218.113 219.04 217.472 218.503 216.655C217.967 215.838 217.698 214.928 217.698 213.925C217.698 212.665 218.013 211.673 218.643 210.95C219.297 210.227 220.347 209.702 221.793 209.375C223.24 209.048 225.235 208.885 227.778 208.885H228.653V208.08C228.653 206.937 228.408 206.108 227.918 205.595C227.428 205.058 226.635 204.79 225.538 204.79C224.862 204.79 224.173 204.895 223.473 205.105C222.773 205.292 221.945 205.572 220.988 205.945C220.382 206.248 219.938 206.4 219.658 206.4C219.238 206.4 218.888 206.248 218.608 205.945C218.352 205.642 218.223 205.245 218.223 204.755C218.223 204.358 218.317 204.02 218.503 203.74C218.713 203.437 219.052 203.157 219.518 202.9C220.335 202.457 221.303 202.107 222.423 201.85C223.567 201.593 224.687 201.465 225.783 201.465ZM224.698 216.13C225.865 216.13 226.81 215.745 227.533 214.975C228.28 214.182 228.653 213.167 228.653 211.93V211.195H228.023C226.46 211.195 225.247 211.265 224.383 211.405C223.52 211.545 222.902 211.79 222.528 212.14C222.155 212.49 221.968 212.968 221.968 213.575C221.968 214.322 222.225 214.94 222.738 215.43C223.275 215.897 223.928 216.13 224.698 216.13ZM250.915 201.535C251.568 201.535 252.093 201.722 252.49 202.095C252.887 202.468 253.085 202.97 253.085 203.6V223.445C253.085 224.052 252.875 224.542 252.455 224.915C252.035 225.288 251.498 225.475 250.845 225.475C250.192 225.475 249.667 225.288 249.27 224.915C248.897 224.565 248.71 224.098 248.71 223.515V216.305C248.197 217.238 247.45 217.973 246.47 218.51C245.513 219.023 244.428 219.28 243.215 219.28C241.722 219.28 240.403 218.918 239.26 218.195C238.117 217.472 237.218 216.445 236.565 215.115C235.935 213.785 235.62 212.233 235.62 210.46C235.62 208.687 235.935 207.123 236.565 205.77C237.218 204.393 238.117 203.332 239.26 202.585C240.427 201.838 241.745 201.465 243.215 201.465C244.452 201.465 245.548 201.733 246.505 202.27C247.485 202.783 248.232 203.518 248.745 204.475V203.6C248.745 202.97 248.943 202.468 249.34 202.095C249.737 201.722 250.262 201.535 250.915 201.535ZM244.405 215.885C245.782 215.885 246.843 215.407 247.59 214.45C248.36 213.493 248.745 212.14 248.745 210.39C248.745 208.617 248.36 207.252 247.59 206.295C246.843 205.338 245.77 204.86 244.37 204.86C242.993 204.86 241.92 205.35 241.15 206.33C240.38 207.31 239.995 208.687 239.995 210.46C239.995 212.187 240.38 213.528 241.15 214.485C241.92 215.418 243.005 215.885 244.405 215.885Z" fill="#1D3557"/>
<path d="M179 163C179 165.364 178.431 167.704 177.325 169.888C176.22 172.072 174.599 174.056 172.556 175.728C170.513 177.399 168.088 178.725 165.419 179.63C162.75 180.534 159.889 181 157 181C154.111 181 151.25 180.534 148.581 179.63C145.912 178.725 143.487 177.399 141.444 175.728C139.401 174.056 137.78 172.072 136.675 169.888C135.569 167.704 135 165.364 135 163L157 163H179Z" fill="#E45301"/>
<path d="M135.193 161C131.44 191.175 183.666 186.737 178.662 161" stroke="#1D3557" stroke-width="3" stroke-linecap="round"/>
<path d="M120.306 144.729C124.209 145.274 126.793 146.259 127.727 147.527C128.055 147.971 127.66 148.492 127.112 148.555L103.269 151.303L79.4273 154.051C78.8786 154.114 78.3761 153.697 78.594 153.19C79.2149 151.743 81.5073 150.196 85.1835 148.777C89.702 147.034 95.9409 145.628 102.528 144.868C109.115 144.109 115.51 144.059 120.306 144.729Z" stroke="#1D3557" stroke-width="3"/>
<ellipse cx="102.182" cy="141.865" rx="2.9661" ry="3.02273" transform="rotate(-6.5752 102.182 141.865)" stroke="#1D3557" stroke-width="3"/>
<path d="M99.2 182.129C97.4033 182.129 95.7 181.895 94.09 181.429C92.5033 180.939 91.2083 180.285 90.205 179.469C89.6683 179.072 89.4 178.512 89.4 177.789C89.4 177.299 89.54 176.879 89.82 176.529C90.1233 176.155 90.4733 175.969 90.87 175.969C91.29 175.969 91.7683 176.132 92.305 176.459C93.3083 177.182 94.3583 177.707 95.455 178.034C96.5517 178.36 97.765 178.524 99.095 178.524C100.798 178.524 102.105 178.232 103.015 177.649C103.925 177.042 104.38 176.167 104.38 175.024C104.38 174.137 103.948 173.46 103.085 172.994C102.245 172.504 100.833 172.037 98.85 171.594C96.7967 171.15 95.1283 170.637 93.845 170.054C92.5617 169.47 91.5933 168.724 90.94 167.814C90.2867 166.904 89.96 165.749 89.96 164.349C89.96 162.902 90.3683 161.607 91.185 160.464C92.0017 159.32 93.1333 158.434 94.58 157.804C96.05 157.15 97.695 156.824 99.515 156.824C102.852 156.824 105.57 157.71 107.67 159.484C107.973 159.74 108.183 159.997 108.3 160.254C108.44 160.487 108.51 160.79 108.51 161.164C108.51 161.654 108.358 162.085 108.055 162.459C107.775 162.809 107.437 162.984 107.04 162.984C106.807 162.984 106.585 162.949 106.375 162.879C106.188 162.809 105.932 162.68 105.605 162.494C104.648 161.794 103.715 161.28 102.805 160.954C101.918 160.604 100.822 160.429 99.515 160.429C97.9283 160.429 96.6683 160.755 95.735 161.409C94.825 162.039 94.37 162.925 94.37 164.069C94.37 165.025 94.7783 165.76 95.595 166.274C96.4117 166.787 97.8 167.265 99.76 167.709C101.837 168.175 103.517 168.7 104.8 169.284C106.107 169.844 107.098 170.567 107.775 171.454C108.475 172.34 108.825 173.449 108.825 174.779C108.825 176.225 108.417 177.509 107.6 178.629C106.807 179.725 105.675 180.589 104.205 181.219C102.758 181.825 101.09 182.129 99.2 182.129ZM134.405 179.119C134.545 179.422 134.615 179.725 134.615 180.029C134.615 180.565 134.393 181.02 133.95 181.394C133.53 181.767 133.04 181.954 132.48 181.954C132.107 181.954 131.757 181.86 131.43 181.674C131.103 181.464 130.847 181.149 130.66 180.729L128.56 176.039H116.24L114.14 180.729C113.953 181.149 113.697 181.464 113.37 181.674C113.043 181.86 112.682 181.954 112.285 181.954C111.748 181.954 111.258 181.767 110.815 181.394C110.372 181.02 110.15 180.565 110.15 180.029C110.15 179.725 110.22 179.422 110.36 179.119L120.02 158.364C120.23 157.897 120.545 157.547 120.965 157.314C121.408 157.057 121.875 156.929 122.365 156.929C122.855 156.929 123.31 157.057 123.73 157.314C124.173 157.547 124.5 157.897 124.71 158.364L134.405 179.119ZM117.78 172.539H127.02L122.4 162.144L117.78 172.539Z" fill="#1D3557"/>
<path d="M305.724 235.173C299.245 253.954 278.101 265.822 248.879 269.677C219.69 273.528 182.604 269.352 144.554 256.21C106.503 243.068 74.7393 223.464 54.1389 202.417C33.5151 181.346 24.189 158.954 30.6675 140.173C37.1461 121.392 58.2905 109.524 87.5127 105.668C116.702 101.818 153.787 105.994 191.838 119.136C229.888 132.278 261.652 151.881 282.252 172.929C302.876 194 312.202 216.392 305.724 235.173Z" stroke="#1D3557"/>
<path d="M99.5778 310.223C45.1152 281.137 31.4399 200.13 69.3922 129.153C107.345 58.1767 182.333 24.5199 236.795 53.6054C291.258 82.6909 304.933 163.698 266.981 234.675C229.028 305.651 154.04 339.308 99.5778 310.223Z" stroke="#1D3557"/>
</svg>
