<svg width="17" height="21" viewBox="0 0 17 21" fill="none" xmlns="http://www.w3.org/2000/svg">
<path d="M13.3571 0H3.64286C2.67672 0 1.75014 0.331808 1.06698 0.92243C0.383809 1.51305 9.57211e-06 2.31411 9.57211e-06 3.14937V19.946C-0.000839902 20.131 0.0548645 20.3129 0.161483 20.4733C0.268101 20.6337 0.421847 20.7669 0.607152 20.8594C0.791746 20.9515 1.00114 21 1.21429 21C1.42745 21 1.63684 20.9515 1.82144 20.8594L8.5 17.521L15.1786 20.8594C15.3636 20.95 15.573 20.9971 15.7857 20.9958C15.9984 20.9971 16.2078 20.95 16.3928 20.8594C16.5782 20.7669 16.7319 20.6337 16.8385 20.4733C16.9451 20.3129 17.0008 20.131 17 19.946V3.14937C17 2.31411 16.6162 1.51305 15.933 0.92243C15.2499 0.331808 14.3233 0 13.3571 0ZM14.5714 18.1299L9.10714 15.4004C8.92255 15.3083 8.71315 15.2598 8.5 15.2598C8.28685 15.2598 8.07745 15.3083 7.89286 15.4004L2.42858 18.1299V3.14937C2.42858 2.87095 2.55651 2.60393 2.78423 2.40706C3.01196 2.21019 3.32081 2.09958 3.64286 2.09958H13.3571C13.6792 2.09958 13.988 2.21019 14.2158 2.40706C14.4435 2.60393 14.5714 2.87095 14.5714 3.14937V18.1299Z" fill="#FEFEFE"/>
</svg>
